<svg width="32" height="32" viewBox="0 0 32 32" fill="none" xmlns="http://www.w3.org/2000/svg">
<path fill-rule="evenodd" clip-rule="evenodd" d="M16 7C17.1819 6.99999 18.3522 7.23278 19.4441 7.68507C20.5361 8.13736 21.5282 8.80029 22.364 9.63602C23.1997 10.4717 23.8626 11.4639 24.3149 12.5558C24.7672 13.6478 25 14.8181 25 16C25 20.9705 20.9705 25 16 25C11.0295 25 7 20.9705 7 16C7 11.0295 11.0295 7 16 7ZM16.6751 18.6991H14.8751C12.647 18.6991 11.4252 18.7978 10.6001 20.7241C11.9056 22.5547 13.5803 23.2 16 23.2C18.4197 23.2 20.0946 22.5548 21.4001 20.7241C20.575 18.7979 18.9032 18.6991 16.6751 18.6991ZM16 11.2741C14.5088 11.2741 13.3 12.483 13.3 13.9741C13.3 15.4653 14.5088 16.6741 16 16.6741C17.4911 16.6741 18.7 15.4653 18.7 13.9741C18.7 12.483 17.4912 11.2741 16 11.2741Z" fill="#4B0129"/>
</svg>
